<svg width="350" height="55" viewBox="0 0 350 55" fill="none" xmlns="http://www.w3.org/2000/svg">
<g filter="url(#filter0_d_2003_517)">
<path d="M2 29C2 40.0457 10.9543 49 22 49H324C335.046 49 344 40.0457 344 29V22C344 10.9543 335.046 2 324 2H22C10.9543 2 2 10.9543 2 22V29Z" fill="#FFF7B0"/>
<path d="M2.5 29C2.5 39.7696 11.2304 48.5 22 48.5H324C334.77 48.5 343.5 39.7696 343.5 29V22C343.5 11.2304 334.77 2.5 324 2.5H22C11.2305 2.5 2.5 11.2304 2.5 22V29Z" stroke="#FFE500"/>
</g>
<path d="M116.2 19.175H120.05V21.85H116.2V19.175ZM116.2 26.325H120.05V29.025H116.2V26.325ZM123.725 14.075H126.9V37.225H123.725V14.075ZM119.1 14.425H122.2V36.175H119.1V14.425ZM112.2 15.7C115.275 15.7 117.25 18.875 117.25 24.1C117.25 29.35 115.275 32.525 112.2 32.525C109.15 32.525 107.2 29.35 107.2 24.1C107.2 18.875 109.15 15.7 112.2 15.7ZM112.2 18.825C110.925 18.825 110.175 20.575 110.175 24.1C110.175 27.65 110.925 29.375 112.2 29.375C113.5 29.375 114.25 27.65 114.25 24.1C114.25 20.575 113.5 18.825 112.2 18.825ZM146.723 17.075H150.723V19.8H146.723V17.075ZM146.723 22.1H150.723V24.825H146.723V22.1ZM144.423 14.075H147.748V27.725H144.423V14.075ZM132.298 28.675H147.748V37.225H144.423V31.325H132.298V28.675ZM135.973 15.325C139.548 15.325 142.273 17.7 142.273 21C142.273 24.3 139.548 26.65 135.973 26.65C132.398 26.65 129.673 24.3 129.673 21C129.673 17.7 132.398 15.325 135.973 15.325ZM135.973 18.15C134.223 18.15 132.923 19.175 132.923 21C132.923 22.825 134.223 23.875 135.973 23.875C137.723 23.875 139.023 22.825 139.023 21C139.023 19.175 137.723 18.15 135.973 18.15ZM166.896 14.075H170.196V37.225H166.896V14.075ZM169.446 23.1H173.546V25.875H169.446V23.1ZM151.946 17.5H165.421V20.15H151.946V17.5ZM158.721 21.45C162.096 21.45 164.596 23.75 164.596 26.975C164.596 30.2 162.096 32.5 158.721 32.5C155.346 32.5 152.846 30.2 152.846 26.975C152.846 23.75 155.346 21.45 158.721 21.45ZM158.721 24.15C157.146 24.15 156.021 25.2 156.021 26.975C156.021 28.75 157.146 29.8 158.721 29.8C160.296 29.8 161.421 28.75 161.421 26.975C161.421 25.2 160.296 24.15 158.721 24.15ZM157.046 14.45H160.371V18.5H157.046V14.45ZM190.619 14.05H193.944V37.275H190.619V14.05ZM186.994 22.4H191.294V25.075H186.994V22.4ZM175.369 29.175H177.269C181.019 29.175 183.994 29.1 187.344 28.525L187.644 31.225C184.219 31.8 181.119 31.925 177.269 31.925H175.369V29.175ZM175.319 16.025H185.744V24.725H178.669V30H175.369V22.1H182.469V18.675H175.319V16.025ZM217.618 14.05H220.968V37.2H217.618V14.05ZM220.093 22.9H224.168V25.625H220.093V22.9ZM211.543 16.45H214.793C214.793 23.4 212.143 29.35 204.443 33.225L202.593 30.7C208.668 27.55 211.543 23.3 211.543 17.025V16.45ZM203.868 16.45H213.243V19.125H203.868V16.45ZM241.291 14.075H244.641V37.225H241.291V14.075ZM234.466 16.475H237.766C237.766 23.55 235.366 29.35 227.141 33.325L225.416 30.675C232.066 27.475 234.466 23.275 234.466 17.075V16.475ZM226.641 16.475H236.041V19.1H226.641V16.475Z" fill="black"/>
<defs>
<filter id="filter0_d_2003_517" x="0" y="0" width="350" height="55" filterUnits="userSpaceOnUse" color-interpolation-filters="sRGB">
<feFlood flood-opacity="0" result="BackgroundImageFix"/>
<feColorMatrix in="SourceAlpha" type="matrix" values="0 0 0 0 0 0 0 0 0 0 0 0 0 0 0 0 0 0 127 0" result="hardAlpha"/>
<feOffset dx="2" dy="2"/>
<feGaussianBlur stdDeviation="2"/>
<feComposite in2="hardAlpha" operator="out"/>
<feColorMatrix type="matrix" values="0 0 0 0 0 0 0 0 0 0 0 0 0 0 0 0 0 0 0.1 0"/>
<feBlend mode="normal" in2="BackgroundImageFix" result="effect1_dropShadow_2003_517"/>
<feBlend mode="normal" in="SourceGraphic" in2="effect1_dropShadow_2003_517" result="shape"/>
</filter>
</defs>
</svg>
