<svg width="333" height="85" viewBox="0 0 333 85" fill="none" xmlns="http://www.w3.org/2000/svg">
<g clip-path="url(#clip0_2025_3)">
<g opacity="0.9">
<path d="M43.1771 53.6601C49.669 53.6601 55.9547 48.9116 58.5257 29.2581H27.8285C29.9306 48.3455 36.6904 53.6601 43.1823 53.6601H43.1771Z" fill="#FF4343"/>
<path d="M118.282 44.7292L117.833 45.866C117.452 45.7397 117.071 45.6274 116.69 45.5198C116.231 46.1233 115.793 46.7456 115.386 47.3818C115.943 47.5222 116.494 47.6812 117.045 47.859L116.597 48.9958L116.149 50.1327C115.474 49.9128 114.794 49.7303 114.108 49.5713C113.66 50.4274 113.258 51.3069 112.898 52.2098C113.634 52.3595 114.366 52.5513 115.092 52.7899L114.644 53.9267L114.196 55.0636C113.5 54.839 112.8 54.6659 112.099 54.5302C111.924 55.1337 111.764 55.7419 111.63 56.3595H114.624C117.504 44.4532 129.205 35.5176 143.167 35.5176C157.13 35.5176 168.831 44.4579 171.711 56.3595H174.704C174.617 55.9665 174.524 55.5782 174.421 55.1899C173.761 55.3162 173.107 55.4753 172.453 55.6811L172.02 54.5536L171.587 53.4308C172.288 53.211 172.994 53.0332 173.7 52.8882C173.375 51.9946 172.999 51.1198 172.587 50.2683C171.917 50.418 171.247 50.5911 170.582 50.8016L170.15 49.6742L169.717 48.5514C170.278 48.3736 170.84 48.2192 171.402 48.0836C170.876 47.2134 170.304 46.3666 169.686 45.5526C169.078 45.7023 168.47 45.866 167.867 46.0578L167.434 44.9351L167.002 43.8076C167.331 43.7047 167.661 43.6111 167.996 43.5175C162.091 37.0194 153.163 32.8697 143.183 32.8651C133.218 32.8651 124.3 37.0053 118.395 43.4895C118.514 43.5269 118.632 43.5596 118.745 43.5971L118.297 44.7339L118.282 44.7292Z" fill="#FF4343"/>
<path d="M143.167 37.8427C130.621 37.8427 120.08 45.7491 117.251 56.3641H120.271C123.032 47.2321 132.25 40.5 143.172 40.5C154.095 40.5 163.313 47.2321 166.074 56.3641H169.093C166.265 45.7537 155.718 37.8427 143.177 37.8427H143.167Z" fill="#FF4343"/>
<path d="M143.167 43.5924C134.14 43.5924 126.479 48.9584 123.826 56.3641H126.927C129.452 50.4554 135.779 46.2497 143.167 46.2497C150.556 46.2497 156.883 50.4554 159.407 56.3641H162.509C159.855 48.9631 152.189 43.5971 143.167 43.5924Z" fill="#FF4343"/>
<path d="M116.684 45.5198C117.066 45.6274 117.447 45.7444 117.828 45.866L118.277 44.7292L118.725 43.5924C118.611 43.5549 118.493 43.5222 118.374 43.4848C104.52 39.148 89.429 44.8274 82.8392 56.3594H85.8894C92.0463 46.8531 104.778 42.1795 116.684 45.5198Z" fill="#FF4343"/>
<path d="M114.108 49.5759C114.794 49.7303 115.474 49.9128 116.149 50.1373L116.597 49.0005L117.045 47.8637C116.494 47.6859 115.937 47.5268 115.386 47.3865C105.159 44.7807 94.3804 48.5748 88.6407 56.3641H91.9433C97.1368 50.4788 105.787 47.6765 114.108 49.5806V49.5759Z" fill="#FF4343"/>
<path d="M112.099 54.5303C112.8 54.6659 113.5 54.839 114.196 55.0636L114.644 53.9267L115.092 52.7899C114.366 52.5513 113.629 52.3642 112.898 52.2098C106.802 50.9654 100.553 52.6355 96.163 56.3595H100.532C103.912 54.4788 108.039 53.7537 112.099 54.5303Z" fill="#FF4343"/>
<path d="M167.424 44.935L167.857 46.0578C168.46 45.866 169.068 45.7023 169.676 45.5526C181.129 42.7362 193.149 47.3069 199.09 56.3594H202.099C195.715 45.3187 181.382 39.7421 167.986 43.5128C167.656 43.6064 167.321 43.7 166.991 43.8029L167.424 44.9304V44.935Z" fill="#FF4343"/>
<path d="M171.391 48.0836C170.83 48.2239 170.268 48.3736 169.707 48.5514L170.139 49.6742L170.572 50.8016C171.237 50.5911 171.907 50.4133 172.576 50.2683C180.439 48.528 188.559 51.0309 193.69 56.3595H197.044C191.325 49.1736 181.134 45.6976 171.386 48.0836H171.391Z" fill="#FF4343"/>
<path d="M173.694 52.8882C172.988 53.0285 172.283 53.2063 171.582 53.4309L172.015 54.5536L172.448 55.6811C173.102 55.4753 173.756 55.3115 174.416 55.1899C177.919 54.5256 181.469 54.9887 184.53 56.3595H189.321C185.076 53.1548 179.326 51.7607 173.694 52.8882Z" fill="#FF4343"/>
<path d="M413.156 82.1369L254.415 82.1462L253.421 40.9772C257.501 39.8591 260.299 36.4673 260.299 32.5516V19.457C260.299 18.0255 259.016 16.8606 257.439 16.8606C257.383 16.8606 257.321 16.8606 257.264 16.8699H257.244C255.749 16.9635 254.58 18.0957 254.58 19.457V29.2674C254.575 30.1095 254.26 30.5352 253.637 30.5352C253.014 30.5352 252.71 30.1095 252.71 29.2674V19.2512C252.71 17.9366 251.53 16.8653 250.082 16.8653C248.634 16.8653 247.454 17.9366 247.454 19.2512V29.2674C247.454 30.1095 247.14 30.5352 246.517 30.5352C245.893 30.5352 245.589 30.1095 245.589 29.2674V19.457C245.589 18.1003 244.42 16.9635 242.925 16.8699H242.905C242.848 16.8699 242.786 16.8606 242.73 16.8606C241.153 16.8606 239.87 18.0255 239.87 19.457V20.4863L239.875 27.6394V27.6955C239.875 27.747 239.87 27.8031 239.87 27.8593V32.5563C239.87 36.472 242.668 39.8638 246.748 40.9819L245.754 82.1509H229.53L228.545 41.3281C233.167 40.1258 235.419 36.182 235.419 29.2955C235.419 26.1423 234.234 23.0453 232.08 20.5658C230.065 18.25 227.494 16.8699 225.207 16.8699C220.482 16.8699 214.995 22.2968 214.995 29.2955C214.995 35.8779 217.37 40.0135 221.868 41.2907L220.879 82.1556H179.316C196.174 76.5323 206.143 67.4704 206.143 57.6179C206.143 57.5618 206.143 57.5056 206.133 57.4542C206.051 56.846 205.479 56.3735 204.783 56.3735H79.4079C78.6865 56.3735 78.0992 56.8834 78.0528 57.529C78.0528 57.5571 78.0528 57.5898 78.0528 57.6226C78.0528 67.4798 88.0224 76.5369 104.881 82.1603H45.9799L45.9027 59.4939C46.15 59.4518 46.3921 59.4144 46.6343 59.3629C59.9838 56.6823 66.2387 37.9971 66.2387 1.1415V0H19.9816V1.12747C19.9816 37.9831 26.2416 56.6682 39.5911 59.3489C40.163 59.4658 40.7452 59.5547 41.3377 59.6109L41.3274 82.1462H-2.85842C-3.70339 82.1462 -4.3938 82.7684 -4.3938 83.5404C-4.3938 84.3123 -3.70855 84.9345 -2.85842 84.9345H30.2552C30.3376 84.9392 30.4252 84.9439 30.5128 84.9439H55.7126C55.8002 84.9439 55.8826 84.9439 55.9702 84.9345H105.818C106.122 84.9345 106.401 84.8503 106.638 84.7146C106.802 84.6164 106.947 84.4901 107.06 84.345L108.688 82.9369H108.637C108.678 82.9182 108.714 82.8948 108.755 82.876L109.203 82.4363C109.301 82.2772 109.363 82.0948 109.373 81.903C109.404 81.3509 109.023 80.8457 108.441 80.6726C91.8764 75.7183 81.6903 67.6248 80.8247 58.8343H203.361C203.361 58.8343 203.361 58.853 203.361 58.8623C203.32 59.2881 203.248 59.7138 203.16 60.1348C201.465 68.4201 191.49 75.9662 175.745 80.6772C175.163 80.8503 174.782 81.3556 174.812 81.9076C174.823 82.1322 174.905 82.3427 175.034 82.5205C175.034 82.5205 177.27 84.9392 177.517 84.9392H221.744C222.105 84.9392 222.394 84.317 222.394 83.545C222.394 83.3205 222.368 83.11 222.321 82.9228L222.394 79.9755L222.481 76.3311L223.352 40.2708L222.78 40.1445C218.581 39.2088 216.453 35.5597 216.453 29.2955C216.453 23.0313 221.24 18.1986 225.202 18.1986C228.726 18.1986 233.95 22.8582 233.95 29.2955C233.95 35.7328 231.946 39.2977 227.639 40.1679L227.051 40.2848L227.922 76.3311L228.01 79.9755L228.071 82.6515C228.03 82.8948 228.01 83.2035 228.01 83.5404C228.01 84.3123 228.133 84.9345 228.283 84.9345H246.918C247.068 84.9345 247.191 84.3123 247.191 83.5404C247.191 83.4655 247.191 83.3907 247.191 83.3205L247.212 83.3018C247.202 83.2456 247.197 83.1895 247.197 83.1287L247.274 79.9661L247.31 79.0586L247.362 77.2668V76.3171L248.237 39.9433L247.66 39.817C243.935 39.017 241.333 36.0276 241.333 32.5469V27.8499C241.333 27.8125 241.333 27.7704 241.333 27.733V19.8126V19.3822C241.375 18.7179 241.983 18.1845 242.724 18.1845C242.75 18.1845 242.771 18.1845 242.791 18.1845H242.822C243.549 18.2313 244.121 18.7834 244.121 19.4477V29.2581C244.121 30.8627 245.038 31.8592 246.517 31.8592C247.995 31.8592 248.918 30.8393 248.918 29.2581V19.2418C248.918 18.6571 249.438 18.1845 250.082 18.1845C250.726 18.1845 251.246 18.6571 251.246 19.2418V29.2581C251.246 30.8581 252.163 31.8545 253.637 31.8545C255.111 31.8545 256.038 30.8347 256.038 29.2581V19.4477C256.038 18.7834 256.615 18.2313 257.347 18.1845H257.372C257.372 18.1845 257.414 18.1799 257.434 18.1799C258.202 18.1799 258.83 18.7459 258.83 19.4477V32.5422C258.83 36.0229 256.229 39.0123 252.503 39.8123L251.926 39.9386L252.802 76.3124L252.782 77.6176L252.818 78.5767L252.89 79.9568L252.967 83.1053C252.967 83.1053 252.967 83.1334 252.967 83.1521C252.967 83.1521 252.921 84.9906 253.318 84.9205L413.223 84.9906C413.373 84.9906 413.167 84.6538 413.167 83.8819C413.167 82.5532 413.306 82.1228 413.156 82.1228V82.1369ZM30.2552 48.0555C29.9152 47.4286 29.5957 46.7409 29.2917 45.997C25.3502 36.8463 23.3151 23.0406 23.243 3.04557H62.9721C62.9 23.0219 60.87 36.8229 56.9337 45.9736C56.6297 46.7362 56.2948 47.4379 55.9496 48.0789C52.75 54.3104 48.4633 57.4495 43.105 57.4495C37.7466 57.4495 33.4496 54.301 30.2501 48.0555H30.2552Z" fill="#FF4343"/>
</g>
</g>
<defs>
<clipPath id="clip0_2025_3">
<rect width="410" height="85" fill="white"/>
</clipPath>
</defs>
</svg>
